<svg width="16" height="16" viewBox="0 0 16 16" fill="none" xmlns="http://www.w3.org/2000/svg">
<rect width="16" height="16" transform="translate(16 7.62939e-06) rotate(90)" fill="#00002D"/>
<path d="M8.89111 13.4277L9.89367 14.0714C9.99526 14.1368 10.1282 14.0638 10.1282 13.9444L10.1282 8.52141L10.1282 5.08086C10.1282 4.5452 9.84525 4.04936 9.38385 3.77631L6.34009 1.97403C5.7828 1.6441 5.07835 2.04513 5.07835 2.69172L5.07835 4.38971L5.07835 5.45345L5.07835 9.47802C5.07835 9.64583 5.16379 9.80226 5.30525 9.89232L6.30781 10.5361C6.40845 10.6005 6.54231 10.5285 6.54231 10.4081L6.54231 9.05139C6.54231 8.94615 6.65909 8.88263 6.74738 8.93951C6.82523 8.98976 6.8727 9.07603 6.8727 9.16895L6.8727 11.2964C6.8727 11.4642 6.95815 11.6207 7.09961 11.7107L8.10217 12.3545C8.2028 12.4189 8.33667 12.3469 8.33667 12.2265L8.33667 10.2886C8.33667 10.1834 8.45344 10.1199 8.54174 10.1767C8.61959 10.227 8.66706 10.3133 8.66706 10.4062L8.66706 13.0134C8.66516 13.1812 8.7506 13.3367 8.89111 13.4277Z" fill="#D8D8FA"/>
<path d="M9.29907 13.4277L10.3016 14.0714C10.4032 14.1368 10.5361 14.0638 10.5361 13.9444L10.5361 8.52141L10.5361 5.08086C10.5361 4.5452 10.2532 4.04936 9.79181 3.77631L6.74805 1.97403C6.19076 1.6441 5.48631 2.04513 5.48631 2.69172L5.48631 4.38971L5.48631 5.45345L5.48631 9.47802C5.48631 9.64583 5.57175 9.80226 5.71321 9.89232L6.71577 10.5361C6.81641 10.6005 6.95027 10.5285 6.95027 10.4081L6.95027 9.05139C6.95027 8.94615 7.06705 8.88263 7.15534 8.93951C7.23319 8.98976 7.28066 9.07603 7.28066 9.16895L7.28066 11.2964C7.28066 11.4642 7.36611 11.6207 7.50757 11.7107L8.51013 12.3545C8.61076 12.4189 8.74463 12.3469 8.74463 12.2265L8.74463 10.2886C8.74463 10.1834 8.8614 10.1199 8.9497 10.1767C9.02755 10.227 9.07502 10.3133 9.07502 10.4062L9.07502 13.0134C9.07312 13.1812 9.15856 13.3367 9.29907 13.4277Z" fill="#372666"/>
<path d="M9.70703 13.4277L10.7096 14.0714C10.8112 14.1368 10.9441 14.0638 10.9441 13.9444L10.9441 8.52141L10.9441 5.08085C10.9441 4.54519 10.6612 4.04935 10.1998 3.7763L7.15601 1.97402C6.59872 1.64409 5.89427 2.04512 5.89427 2.69171L5.89426 4.38971L5.89426 5.45344L5.89426 9.47801C5.89426 9.64582 5.97971 9.80225 6.12117 9.89232L7.12373 10.5361C7.22437 10.6005 7.35823 10.5285 7.35823 10.4081L7.35823 9.05138C7.35823 8.94614 7.47501 8.88262 7.5633 8.9395C7.64115 8.98975 7.68862 9.07603 7.68862 9.16894L7.68862 11.2964C7.68862 11.4642 7.77406 11.6207 7.91552 11.7107L8.91808 12.3545C9.01872 12.4189 9.15258 12.3469 9.15258 12.2265L9.15259 10.2886C9.15259 10.1834 9.26936 10.1199 9.35765 10.1767C9.4355 10.227 9.48297 10.3133 9.48297 10.4062L9.48297 13.0134C9.48108 13.1812 9.56652 13.3367 9.70703 13.4277Z" fill="white"/>
<path fill-rule="evenodd" clip-rule="evenodd" d="M7.91888 4.10548C7.8149 4.05009 7.71515 4.0542 7.64154 4.11691C7.56794 4.17961 7.52651 4.29578 7.52637 4.43988V4.98375C7.52637 5.128 7.56769 5.28831 7.64125 5.42941C7.71481 5.57052 7.81458 5.68087 7.91861 5.73618C8.02263 5.7915 8.1224 5.78724 8.19596 5.72436C8.26952 5.66148 8.31085 5.54511 8.31085 5.40087V4.857C8.31085 4.55714 8.13541 4.21985 7.91861 4.10457L7.91888 4.10548ZM9.65582 5.02903C9.55184 4.97374 9.45212 4.97796 9.37856 5.04077C9.30501 5.10357 9.26366 5.21982 9.26358 5.36396V5.90783C9.26358 6.05207 9.30491 6.21238 9.37847 6.35349C9.45203 6.4946 9.55179 6.60495 9.65582 6.66026C9.75985 6.71557 9.85962 6.71132 9.93318 6.64844C10.0067 6.58555 10.0481 6.46919 10.0481 6.32495V5.78069C10.0481 5.48084 9.87263 5.14354 9.65582 5.02826V5.02903Z" fill="#372666"/>
</svg>
